# xmcd
#
# Track frame offsets: 
#        150
#        18821
#        34853
#        47317
#        61996
#        73193
#        92356
#        117030
#        127891
#        145117
#        148198
#        165673
#        181874
#
# Disc length: 2466 seconds
#
# Revision: 0
# Processed by: cddbd v1.5.1PL2 Copyright (c) Steve Scherf et al.
# Submitted via: ExactAudioCopy v0.95b3
#
DISCID=a409a00d
DTITLE=Bródy János - Ne szólj szám
DYEAR=1985
DGENRE=Country
TTITLE0=Ne szólj szám
TTITLE1=Álmodom
TTITLE2=Jerry Lee Lewis
TTITLE3=Egy hétig tart
TTITLE4=Én várok még Rád
TTITLE5=A vállalkozás
TTITLE6=Az átkelö
TTITLE7=Tudom, hogy itt élsz
TTITLE8=Vándor Éva
TTITLE9=ladazssiV
TTITLE10=Az illuzionista
TTITLE11=Ha én rózsa volnék
TTITLE12=Visszadal
EXTD=
EXTT0=
EXTT1=
EXTT2=
EXTT3=
EXTT4=
EXTT5=
EXTT6=
EXTT7=
EXTT8=
EXTT9=
EXTT10=
EXTT11=
EXTT12=
PLAYORDER=
